<svg width="36" height="30" viewBox="0 0 36 30" fill="none" xmlns="http://www.w3.org/2000/svg">
<path d="M15.2734 8.55884C14.6584 8.55884 14.1484 8.14801 14.1484 7.65259V4.02759C14.1484 3.53217 14.6584 3.12134 15.2734 3.12134C15.8884 3.12134 16.3984 3.53217 16.3984 4.02759V7.65259C16.3984 8.14801 15.8884 8.55884 15.2734 8.55884Z" fill="#64C661"/>
<path d="M27.2734 8.55884C26.6584 8.55884 26.1484 8.14801 26.1484 7.65259V4.02759C26.1484 3.53217 26.6584 3.12134 27.2734 3.12134C27.8884 3.12134 28.3984 3.53217 28.3984 4.02759V7.65259C28.3984 8.14801 27.8884 8.55884 27.2734 8.55884Z" fill="#64C661"/>
<path d="M16.0234 19.1319C15.8284 19.1319 15.6334 19.0957 15.4534 19.0352C15.2584 18.9748 15.1084 18.8902 14.9584 18.7815C14.6884 18.5519 14.5234 18.2498 14.5234 17.9236C14.5234 17.7665 14.5684 17.6094 14.6434 17.4644C14.7184 17.3194 14.8234 17.1865 14.9584 17.0656C15.1084 16.9569 15.2584 16.8723 15.4534 16.8119C15.9934 16.6306 16.6684 16.7273 17.0884 17.0656C17.3584 17.2952 17.5234 17.6094 17.5234 17.9236C17.5234 17.9961 17.5084 18.0807 17.4934 18.1652C17.4784 18.2377 17.4484 18.3102 17.4034 18.3827C17.3734 18.4552 17.3284 18.5277 17.2684 18.6002C17.2234 18.6606 17.1484 18.721 17.0884 18.7815C16.8034 18.999 16.4134 19.1319 16.0234 19.1319Z" fill="#64C661"/>
<path d="M21.2734 19.1319C21.0784 19.1319 20.8834 19.0957 20.7034 19.0352C20.5084 18.9748 20.3584 18.8902 20.2084 18.7815C19.9384 18.5519 19.7734 18.2498 19.7734 17.9236C19.7734 17.7665 19.8184 17.6094 19.8934 17.4644C19.9684 17.3194 20.0734 17.1865 20.2084 17.0656C20.3584 16.9569 20.5084 16.8723 20.7034 16.8119C21.2434 16.6185 21.9184 16.7273 22.3384 17.0656C22.6084 17.2952 22.7734 17.6094 22.7734 17.9236C22.7734 17.9961 22.7584 18.0807 22.7434 18.1652C22.7284 18.2377 22.6984 18.3102 22.6534 18.3827C22.6234 18.4552 22.5784 18.5277 22.5184 18.6002C22.4734 18.6606 22.3984 18.721 22.3384 18.7815C22.0534 18.999 21.6634 19.1319 21.2734 19.1319Z" fill="#64C661"/>
<path d="M26.5234 19.1319C26.3284 19.1319 26.1334 19.0957 25.9534 19.0352C25.7584 18.9748 25.6084 18.8902 25.4584 18.7815C25.3984 18.721 25.3384 18.6606 25.2784 18.6002C25.2184 18.5277 25.1734 18.4552 25.1434 18.3827C25.0984 18.3102 25.0684 18.2377 25.0534 18.1652C25.0384 18.0807 25.0234 17.9961 25.0234 17.9236C25.0234 17.6094 25.1884 17.2952 25.4584 17.0656C25.6084 16.9569 25.7584 16.8723 25.9534 16.8119C26.5084 16.6185 27.1684 16.7273 27.5884 17.0656C27.8584 17.2952 28.0234 17.6094 28.0234 17.9236C28.0234 17.9961 28.0084 18.0807 27.9934 18.1652C27.9784 18.2377 27.9484 18.3102 27.9034 18.3827C27.8734 18.4552 27.8284 18.5277 27.7684 18.6002C27.7234 18.6606 27.6484 18.721 27.5884 18.7815C27.3034 18.999 26.9134 19.1319 26.5234 19.1319Z" fill="#64C661"/>
<path d="M16.0234 23.361C15.8284 23.361 15.6334 23.3248 15.4534 23.2644C15.2734 23.204 15.1084 23.1193 14.9584 23.0106C14.6884 22.781 14.5234 22.4669 14.5234 22.1527C14.5234 21.9956 14.5684 21.8385 14.6434 21.6935C14.7184 21.5364 14.8234 21.4035 14.9584 21.2948C15.5134 20.8477 16.5334 20.8477 17.0884 21.2948C17.3584 21.5244 17.5234 21.8385 17.5234 22.1527C17.5234 22.4669 17.3584 22.781 17.0884 23.0106C16.8034 23.2281 16.4134 23.361 16.0234 23.361Z" fill="#64C661"/>
<path d="M21.2734 23.361C20.8834 23.361 20.4934 23.2281 20.2084 23.0106C19.9384 22.781 19.7734 22.4669 19.7734 22.1527C19.7734 21.9956 19.8184 21.8385 19.8934 21.6935C19.9684 21.5364 20.0734 21.4035 20.2084 21.2948C20.7634 20.8477 21.7834 20.8477 22.3384 21.2948C22.4734 21.4035 22.5784 21.5364 22.6534 21.6935C22.7284 21.8385 22.7734 21.9956 22.7734 22.1527C22.7734 22.4669 22.6084 22.781 22.3384 23.0106C22.0534 23.2281 21.6634 23.361 21.2734 23.361Z" fill="#64C661"/>
<path d="M26.5234 23.3611C26.1334 23.3611 25.7434 23.2282 25.4584 23.0107C25.3234 22.9019 25.2184 22.769 25.1434 22.6119C25.0684 22.4669 25.0234 22.3099 25.0234 22.1528C25.0234 21.9957 25.0684 21.8386 25.1434 21.6936C25.2184 21.5365 25.3234 21.4036 25.4584 21.2949C25.8034 21.0169 26.3284 20.884 26.8084 20.9686C26.9134 20.9807 27.0034 21.0048 27.0934 21.0411C27.1834 21.0653 27.2734 21.1015 27.3634 21.1499C27.4384 21.1861 27.5134 21.2465 27.5884 21.2949C27.8584 21.5244 28.0234 21.8386 28.0234 22.1528C28.0234 22.4669 27.8584 22.7811 27.5884 23.0107C27.3034 23.2282 26.9134 23.3611 26.5234 23.3611Z" fill="#64C661"/>
<path d="M34.0234 13.501H8.52344C7.90844 13.501 7.39844 13.0901 7.39844 12.5947C7.39844 12.0993 7.90844 11.6885 8.52344 11.6885H34.0234C34.6384 11.6885 35.1484 12.0993 35.1484 12.5947C35.1484 13.0901 34.6384 13.501 34.0234 13.501Z" fill="#64C661"/>
<path d="M27.2734 29.1005H15.2734C9.79844 29.1005 6.64844 26.563 6.64844 22.1526V11.8818C6.64844 7.47134 9.79844 4.93384 15.2734 4.93384H27.2734C32.7484 4.93384 35.8984 7.47134 35.8984 11.8818V22.1526C35.8984 26.563 32.7484 29.1005 27.2734 29.1005ZM15.2734 6.74634C10.9834 6.74634 8.89844 8.42592 8.89844 11.8818V22.1526C8.89844 25.6084 10.9834 27.288 15.2734 27.288H27.2734C31.5634 27.288 33.6484 25.6084 33.6484 22.1526V11.8818C33.6484 8.42592 31.5634 6.74634 27.2734 6.74634H15.2734Z" fill="#64C661"/>
</svg>
