<svg width="29" height="29" viewBox="0 0 29 29" fill="none" xmlns="http://www.w3.org/2000/svg">
<path d="M8.38393 14.106C3.72168 14.106 3.72168 16.1923 3.72168 18.7682V19.9338C3.72168 23.1507 3.72168 25.7616 9.54949 25.7616H18.874C23.5363 25.7616 24.7018 23.1507 24.7018 19.9338V18.7682C24.7018 16.1923 24.7018 14.106 20.0396 14.106C18.874 14.106 18.5476 14.3507 17.9415 14.8053L16.7527 16.0641C15.3773 17.5327 13.0462 17.5327 11.6592 16.0641L10.4819 14.8053C9.87585 14.3507 9.54949 14.106 8.38393 14.106Z" stroke="#292D32" stroke-width="1.90728" stroke-miterlimit="10" stroke-linecap="round" stroke-linejoin="round"/>
<path d="M22.3711 14.1058V7.11245C22.3711 4.53655 22.3711 2.4502 17.7089 2.4502H10.7155C6.05322 2.4502 6.05322 4.53655 6.05322 7.11245V14.1058" stroke="#292D32" stroke-width="1.90728" stroke-miterlimit="10" stroke-linecap="round" stroke-linejoin="round"/>
<path opacity="0.4" d="M12.522 10.8772H16.4033" stroke="#292D32" stroke-width="1.90728" stroke-linecap="round" stroke-linejoin="round"/>
<path opacity="0.4" d="M11.5547 7.38062H17.3825" stroke="#292D32" stroke-width="1.90728" stroke-linecap="round" stroke-linejoin="round"/>
</svg>
