<svg width="70" height="31" viewBox="0 0 70 31" fill="none" xmlns="http://www.w3.org/2000/svg">
<path d="M25.6861 9.9208L16.0611 15.4958C15.6736 15.7208 15.1861 15.7208 14.7861 15.4958L5.16111 9.9208C4.47361 9.5208 4.29861 8.5833 4.82361 7.9958C5.18611 7.5833 5.59861 7.2458 6.03611 7.0083L12.8111 3.2583C14.2611 2.4458 16.6111 2.4458 18.0611 3.2583L24.8361 7.0083C25.2736 7.2458 25.6861 7.5958 26.0486 7.9958C26.5486 8.5833 26.3736 9.5208 25.6861 9.9208Z" fill="#057402"/>
<path d="M14.7114 17.8208V26.3458C14.7114 27.2958 13.7489 27.9208 12.8989 27.5083C10.3239 26.2458 5.98643 23.8833 5.98643 23.8833C4.46143 23.0208 3.21143 20.8458 3.21143 19.0583V12.6083C3.21143 11.6208 4.24893 10.9958 5.09893 11.4833L14.0864 16.6958C14.4614 16.9333 14.7114 17.3583 14.7114 17.8208Z" fill="#057402"/>
<path d="M16.1362 17.8208V26.3458C16.1362 27.2958 17.0987 27.9208 17.9487 27.5083C20.5237 26.2458 24.8612 23.8833 24.8612 23.8833C26.3862 23.0208 27.6362 20.8458 27.6362 19.0583V12.6083C27.6362 11.6208 26.5987 10.9958 25.7487 11.4833L16.7612 16.6958C16.3862 16.9333 16.1362 17.3583 16.1362 17.8208Z" fill="#057402"/>
<ellipse cx="19.75" cy="18.25" rx="0.75" ry="1.25" fill="#D9D9D9"/>
<ellipse cx="24.75" cy="15.25" rx="0.75" ry="1.25" fill="#D9D9D9"/>
<ellipse cx="19.75" cy="23.25" rx="0.75" ry="1.25" fill="#D9D9D9"/>
<ellipse cx="24.75" cy="20.25" rx="0.75" ry="1.25" fill="#D9D9D9"/>
<ellipse cx="5.75" cy="20.25" rx="0.75" ry="1.25" fill="#D9D9D9"/>
<ellipse cx="10.75" cy="18.25" rx="0.75" ry="1.25" fill="#D9D9D9"/>
<ellipse cx="15.7499" cy="8.25003" rx="0.75" ry="1.25" transform="rotate(88.873 15.7499 8.25003)" fill="#D9D9D9"/>
<path d="M37.7498 25.6458V3.79145H43.6728C45.2622 3.79145 46.417 4.18052 47.1372 4.95866C47.8657 5.72853 48.2299 7.00337 48.2299 8.78317V9.73929C48.2299 10.7658 48.0437 11.5977 47.6712 12.2352C47.3069 12.8726 46.7481 13.2906 45.9948 13.4893C46.9799 13.7376 47.638 14.3212 47.9692 15.2401C48.3086 16.1507 48.4783 17.2641 48.4783 18.5804C48.4783 19.9959 48.3458 21.2335 48.0809 22.2931C47.816 23.3527 47.3359 24.1764 46.6405 24.7641C45.9452 25.3519 44.9559 25.6458 43.6728 25.6458H37.7498ZM42.0213 12.0241H42.9154C43.321 12.0241 43.5817 11.8668 43.6976 11.5522C43.8135 11.2376 43.8715 10.861 43.8715 10.4222V8.22439C43.8715 7.52075 43.5611 7.16893 42.9402 7.16893H42.0213V12.0241ZM42.4559 21.7964C43.59 21.7964 44.1571 21.2583 44.1571 20.1822V17.4504C44.1571 16.8295 44.0619 16.3411 43.8715 15.9852C43.6894 15.6209 43.3417 15.4388 42.8284 15.4388H42.0213V21.7716C42.2034 21.7881 42.3483 21.7964 42.4559 21.7964ZM50.6816 25.6458V3.79145H57.3372L59.175 17.1151L61.0003 3.79145H67.718V25.6458H63.7197V9.90072L61.2114 25.6458H57.2875L54.6303 9.90072V25.6458H50.6816Z" fill="#057402"/>
</svg>
