<svg width="32" height="32" viewBox="0 0 32 32" fill="none" xmlns="http://www.w3.org/2000/svg">
<path d="M27.3782 15.5096C27.3782 22.1851 21.9742 27.5891 15.2987 27.5891C8.62321 27.5891 3.21924 22.1851 3.21924 15.5096C3.21924 8.83415 8.62321 3.43018 15.2987 3.43018" stroke="white" stroke-width="2.54305" stroke-linecap="round" stroke-linejoin="round"/>
<path opacity="0.4" d="M28.65 28.8609L26.1069 26.3179" stroke="white" stroke-width="2.54305" stroke-linecap="round" stroke-linejoin="round"/>
<path opacity="0.4" d="M19.1133 8.68175C18.6683 7.28308 19.1896 5.54109 20.6646 5.07062C21.4402 4.81632 22.3939 5.03248 22.9406 5.78268C23.4492 5.00705 24.441 4.82904 25.2039 5.07062C26.6789 5.54109 27.2002 7.28308 26.7552 8.68175C26.0559 10.9069 23.6145 12.064 22.9406 12.064C22.254 12.064 19.8381 10.9323 19.1133 8.68175Z" stroke="white" stroke-width="2.54305" stroke-linecap="round" stroke-linejoin="round"/>
</svg>
