<svg width="31" height="31" viewBox="0 0 31 31" fill="none" xmlns="http://www.w3.org/2000/svg">
<path d="M19.3113 29.086H11.6822C10.0038 29.086 8.60512 28.9208 7.4226 28.5648C6.99028 28.4376 6.71055 28.018 6.73598 27.5729C7.05386 23.7711 10.9066 20.783 15.4968 20.783C20.087 20.783 23.927 23.7584 24.2576 27.5729C24.2957 28.0307 24.016 28.4376 23.5709 28.5648C22.3884 28.9208 20.9898 29.086 19.3113 29.086ZM8.78313 26.9372C9.62233 27.1025 10.576 27.1788 11.6822 27.1788H19.3113C20.4176 27.1788 21.3712 27.1025 22.2104 26.9372C21.5365 24.4958 18.7519 22.6902 15.4968 22.6902C12.2417 22.6902 9.45704 24.4958 8.78313 26.9372Z" fill="white"/>
<path d="M19.3111 2.7019H11.6819C5.3243 2.7019 2.78125 5.24495 2.78125 11.6026V19.2317C2.78125 24.0381 4.23079 26.6701 7.68933 27.6492C7.96907 24.3432 11.364 21.7366 15.4965 21.7366C19.6289 21.7366 23.0239 24.3432 23.3036 27.6492C26.7622 26.6701 28.2117 24.0381 28.2117 19.2317V11.6026C28.2117 5.24495 25.6687 2.7019 19.3111 2.7019ZM15.4965 18.1763C12.9789 18.1763 10.9444 16.1292 10.9444 13.6116C10.9444 11.094 12.9789 9.05952 15.4965 9.05952C18.0141 9.05952 20.0485 11.094 20.0485 13.6116C20.0485 16.1292 18.0141 18.1763 15.4965 18.1763Z" stroke="white" stroke-width="1.90728" stroke-linecap="round" stroke-linejoin="round"/>
<path d="M15.4964 19.13C12.4575 19.13 9.99072 16.6506 9.99072 13.6117C9.99072 10.5727 12.4575 8.10596 15.4964 8.10596C18.5354 8.10596 21.0021 10.5727 21.0021 13.6117C21.0021 16.6506 18.5354 19.13 15.4964 19.13ZM15.4964 10.0132C13.5128 10.0132 11.898 11.6281 11.898 13.6117C11.898 15.608 13.5128 17.2228 15.4964 17.2228C17.48 17.2228 19.0948 15.608 19.0948 13.6117C19.0948 11.6281 17.48 10.0132 15.4964 10.0132Z" fill="white"/>
</svg>
